<?xml version="1.0" encoding="UTF-8" standalone="no"?>
<!DOCTYPE svg PUBLIC "-//W3C//DTD SVG 1.1//EN"
 "http://www.w3.org/Graphics/SVG/1.1/DTD/svg11.dtd">
<!-- Generated by graphviz version 2.43.0 (0)
 -->
<!-- Title: G Pages: 1 -->
<svg width="2024pt" height="824pt"
 viewBox="0.00 0.00 2024.00 824.00" xmlns="http://www.w3.org/2000/svg" xmlns:xlink="http://www.w3.org/1999/xlink">
<g id="graph0" class="graph" transform="scale(1 1) rotate(0) translate(4 820)">
<title>G</title>
<polygon fill="white" stroke="transparent" points="-4,4 -4,-820 2020,-820 2020,4 -4,4"/>
<g id="clust1" class="cluster">
<title>cluster_root</title>
<g id="a_clust1"><a xlink:title="eventq_index=0&#10;full_system=true&#10;sim_quantum=0&#10;time_sync_enable=false&#10;time_sync_period=100000000000&#10;time_sync_spin_threshold=100000000">
<path fill="#bab6ae" stroke="#000000" d="M20,-8C20,-8 1996,-8 1996,-8 2002,-8 2008,-14 2008,-20 2008,-20 2008,-796 2008,-796 2008,-802 2002,-808 1996,-808 1996,-808 20,-808 20,-808 14,-808 8,-802 8,-796 8,-796 8,-20 8,-20 8,-14 14,-8 20,-8"/>
<text text-anchor="middle" x="1008" y="-792.8" font-family="Arial" font-size="14.00" fill="#000000">root </text>
<text text-anchor="middle" x="1008" y="-777.8" font-family="Arial" font-size="14.00" fill="#000000">: Root</text>
</a>
</g>
</g>
<g id="clust2" class="cluster">
<title>cluster_system</title>
<g id="a_clust2"><a xlink:title="auto_unlink_shared_backstore=false&#10;cache_line_size=8&#10;cpuid=1091551809&#10;eventq_index=0&#10;exit_on_work_items=true&#10;external_memory_ranges=&#10;init_param=0&#10;m5ops_base=0&#10;mem_mode=timing&#10;mem_ranges=134217728:134479872 134479872:134742016 536870912:536952832 536952832:537001984 268435456:268468224&#10;memories=system.mem_0 system.mem_1 system.mem_2 system.mem_3 system.mem_4&#10;mmap_using_noreserve=false&#10;multi_thread=false&#10;&#10;um_work_ids=16&#10;&#13;eadfile=&#10;&#13;edirect_paths=&#10;&#13;elease=system.release&#10;semihosting=system.semihosting&#10;shadow_rom_ranges=&#10;shared_backstore=&#10;symbolfile=&#10;thermal_components=&#10;thermal_model=Null&#10;work_begin_ckpt_count=0&#10;work_begin_cpu_id_exit=&#45;1&#10;work_begin_exit_count=0&#10;work_cpus_ckpt_count=0&#10;work_end_ckpt_count=0&#10;work_end_exit_count=0&#10;work_item_id=&#45;1&#10;workload=system.workload">
<path fill="#e4e7eb" stroke="#000000" d="M28,-16C28,-16 1988,-16 1988,-16 1994,-16 2000,-22 2000,-28 2000,-28 2000,-750 2000,-750 2000,-756 1994,-762 1988,-762 1988,-762 28,-762 28,-762 22,-762 16,-756 16,-750 16,-750 16,-28 16,-28 16,-22 22,-16 28,-16"/>
<text text-anchor="middle" x="1008" y="-746.8" font-family="Arial" font-size="14.00" fill="#000000">system </text>
<text text-anchor="middle" x="1008" y="-731.8" font-family="Arial" font-size="14.00" fill="#000000">: STM32G474RETimingBoard</text>
</a>
</g>
</g>
<g id="clust7" class="cluster">
<title>cluster_system_platform</title>
<g id="a_clust7"><a xlink:title="boot_alias_ranges=0:262144&#10;code_ranges=134217728:134479872 134479872:134742016&#10;eventq_index=0&#10;external_device_ranges=&#10;external_ram_ranges=&#10;periph_ranges=1073741824:1610612736&#10;ppb_range=3758096384:3759144960&#10;scs=system.platform.scs&#10;sram_ranges=536870912:536952832 536952832:536969216 268435456:268468224&#10;system=system&#10;vendor_ranges=">
<path fill="#bab6ae" stroke="#000000" d="M1832,-352C1832,-352 1980,-352 1980,-352 1986,-352 1992,-358 1992,-364 1992,-364 1992,-484 1992,-484 1992,-490 1986,-496 1980,-496 1980,-496 1832,-496 1832,-496 1826,-496 1820,-490 1820,-484 1820,-484 1820,-364 1820,-364 1820,-358 1826,-352 1832,-352"/>
<text text-anchor="middle" x="1906" y="-480.8" font-family="Arial" font-size="14.00" fill="#000000">platform </text>
<text text-anchor="middle" x="1906" y="-465.8" font-family="Arial" font-size="14.00" fill="#000000">: STM32G474REPlatform</text>
</a>
</g>
</g>
<g id="clust8" class="cluster">
<title>cluster_system_platform_scs</title>
<g id="a_clust8"><a xlink:title="clk_domain=system.clk_domain&#10;eventq_index=0&#10;has_basepri=true&#10;&#10;um_irqs=102&#10;&#10;um_systick=1&#10;pio_addr=3758153728&#10;pio_latency=1000&#10;power_model=&#10;power_state=system.platform.scs.power_state&#10;priority_bits=4&#10;system=system&#10;systick_calib=2149183679">
<path fill="#c7a793" stroke="#000000" d="M1840,-360C1840,-360 1918,-360 1918,-360 1924,-360 1930,-366 1930,-372 1930,-372 1930,-438 1930,-438 1930,-444 1924,-450 1918,-450 1918,-450 1840,-450 1840,-450 1834,-450 1828,-444 1828,-438 1828,-438 1828,-372 1828,-372 1828,-366 1834,-360 1840,-360"/>
<text text-anchor="middle" x="1879" y="-434.8" font-family="Arial" font-size="14.00" fill="#000000">scs </text>
<text text-anchor="middle" x="1879" y="-419.8" font-family="Arial" font-size="14.00" fill="#000000">: MProfileSCS</text>
</a>
</g>
</g>
<g id="clust10" class="cluster">
<title>cluster_system_cpu</title>
<g id="a_clust10"><a xlink:title="branchPred=system.cpu.branchPred&#10;checker=Null&#10;clk_domain=system.clk_domain&#10;cpu_id=0&#10;decodeCycleInput=true&#10;decodeInputBufferSize=1&#10;decodeInputWidth=1&#10;decodeToExecuteForwardDelay=1&#10;decoder=system.cpu.decoder&#10;do_checkpoint_insts=true&#10;do_statistics_insts=true&#10;enableIdling=true&#10;eventq_index=0&#10;executeAllowEarlyMemoryIssue=true&#10;executeBranchDelay=1&#10;executeCommitLimit=2&#10;executeCycleInput=true&#10;executeFuncUnits=system.cpu.executeFuncUnits&#10;executeInputBufferSize=3&#10;executeInputWidth=1&#10;executeIssueLimit=1&#10;executeLSQMaxStoreBufferStoresPerCycle=2&#10;executeLSQRequestsQueueSize=1&#10;executeLSQStoreBufferSize=3&#10;executeLSQTransfersQueueSize=2&#10;executeMaxAccessesInMemory=2&#10;executeMemoryCommitLimit=1&#10;executeMemoryIssueLimit=1&#10;executeMemoryWidth=8&#10;executeSetTraceTimeOnCommit=true&#10;executeSetTraceTimeOnIssue=false&#10;fetch1FetchLimit=2&#10;fetch1LineSnapWidth=4&#10;fetch1LineWidth=4&#10;fetch1ToFetch2BackwardDelay=0&#10;fetch1ToFetch2ForwardDelay=0&#10;fetch2CycleInput=true&#10;fetch2InputBufferSize=2&#10;fetch2ToDecodeForwardDelay=1&#10;function_trace=false&#10;function_trace_start=0&#10;interrupts=system.cpu.interrupts&#10;isa=system.cpu.isa&#10;max_insts_all_threads=0&#10;max_insts_any_thread=0&#10;mmu=system.cpu.mmu&#10;&#10;umThreads=1&#10;power_gating_on_idle=false&#10;power_model=&#10;power_state=system.cpu.power_state&#10;progress_interval=0&#10;pwr_gating_latency=300&#10;simpoint_start_insts=&#10;singleFetchStage=true&#10;socket_id=0&#10;switched_out=false&#10;syscallRetryLatency=10000&#10;system=system&#10;threadPolicy=SingleThreaded&#10;tracer=system.cpu.tracer&#10;workload=">
<path fill="#bbc6d9" stroke="#000000" d="M935,-32C935,-32 1395,-32 1395,-32 1401,-32 1407,-38 1407,-44 1407,-44 1407,-332 1407,-332 1407,-338 1401,-344 1395,-344 1395,-344 935,-344 935,-344 929,-344 923,-338 923,-332 923,-332 923,-44 923,-44 923,-38 929,-32 935,-32"/>
<text text-anchor="middle" x="1165" y="-328.8" font-family="Arial" font-size="14.00" fill="#000000">cpu </text>
<text text-anchor="middle" x="1165" y="-313.8" font-family="Arial" font-size="14.00" fill="#000000">: CortexM4CPU</text>
</a>
</g>
</g>
<g id="clust81" class="cluster">
<title>cluster_system_cpu_mmu</title>
<g id="a_clust81"><a xlink:title="dtb=system.cpu.mmu.dtb&#10;eventq_index=0&#10;itb=system.cpu.mmu.itb&#10;stacking_barrier=system.cpu.mmu.stacking_barrier&#10;sys=system">
<path fill="#bab6ae" stroke="#000000" d="M1043,-154C1043,-154 1387,-154 1387,-154 1393,-154 1399,-160 1399,-166 1399,-166 1399,-286 1399,-286 1399,-292 1393,-298 1387,-298 1387,-298 1043,-298 1043,-298 1037,-298 1031,-292 1031,-286 1031,-286 1031,-166 1031,-166 1031,-160 1037,-154 1043,-154"/>
<text text-anchor="middle" x="1215" y="-282.8" font-family="Arial" font-size="14.00" fill="#000000">mmu </text>
<text text-anchor="middle" x="1215" y="-267.8" font-family="Arial" font-size="14.00" fill="#000000">: ArmMMMU</text>
</a>
</g>
</g>
<g id="clust84" class="cluster">
<title>cluster_system_cpu_mmu_stacking_barrier</title>
<g id="a_clust84"><a xlink:title="clk_domain=system.clk_domain&#10;eventq_index=0&#10;power_model=&#10;power_state=system.cpu.mmu.stacking_barrier.power_state">
<path fill="#9f9c95" stroke="#000000" d="M1051,-162C1051,-162 1273,-162 1273,-162 1279,-162 1285,-168 1285,-174 1285,-174 1285,-240 1285,-240 1285,-246 1279,-252 1273,-252 1273,-252 1051,-252 1051,-252 1045,-252 1039,-246 1039,-240 1039,-240 1039,-174 1039,-174 1039,-168 1045,-162 1051,-162"/>
<text text-anchor="middle" x="1162" y="-236.8" font-family="Arial" font-size="14.00" fill="#000000">stacking_barrier </text>
<text text-anchor="middle" x="1162" y="-221.8" font-family="Arial" font-size="14.00" fill="#000000">: StackingBarrier</text>
</a>
</g>
</g>
<g id="clust93" class="cluster">
<title>cluster_system_flash_bus</title>
<g id="a_clust93"><a xlink:title="clk_domain=system.flash_bus.clk_domain&#10;eventq_index=0&#10;forward_latency=0&#10;frontend_latency=0&#10;header_latency=0&#10;power_model=&#10;power_state=system.flash_bus.power_state&#10;&#13;esponse_latency=0&#10;use_default_range=false&#10;width=4">
<path fill="#6f798c" stroke="#000000" d="M420,-24C420,-24 732,-24 732,-24 738,-24 744,-30 744,-36 744,-36 744,-240 744,-240 744,-246 738,-252 732,-252 732,-252 420,-252 420,-252 414,-252 408,-246 408,-240 408,-240 408,-36 408,-36 408,-30 414,-24 420,-24"/>
<text text-anchor="middle" x="576" y="-236.8" font-family="Arial" font-size="14.00" fill="#000000">flash_bus </text>
<text text-anchor="middle" x="576" y="-221.8" font-family="Arial" font-size="14.00" fill="#000000">: NoncoherentXBar</text>
</a>
</g>
</g>
<g id="clust97" class="cluster">
<title>cluster_system_flash_bus_badaddr_responder</title>
<g id="a_clust97"><a xlink:title="clk_domain=system.flash_bus.clk_domain&#10;eventq_index=0&#10;fake_mem=false&#10;pio_addr=0&#10;pio_latency=100000&#10;pio_size=8&#10;power_model=&#10;power_state=system.flash_bus.badaddr_responder.power_state&#10;&#13;et_bad_addr=true&#10;&#13;et_data16=65535&#10;&#13;et_data32=4294967295&#10;&#13;et_data64=18446744073709551615&#10;&#13;et_data8=255&#10;system=system&#10;update_data=false&#10;warn_access=">
<path fill="#c7a793" stroke="#000000" d="M428,-32C428,-32 542,-32 542,-32 548,-32 554,-38 554,-44 554,-44 554,-110 554,-110 554,-116 548,-122 542,-122 542,-122 428,-122 428,-122 422,-122 416,-116 416,-110 416,-110 416,-44 416,-44 416,-38 422,-32 428,-32"/>
<text text-anchor="middle" x="485" y="-106.8" font-family="Arial" font-size="14.00" fill="#000000">badaddr_responder </text>
<text text-anchor="middle" x="485" y="-91.8" font-family="Arial" font-size="14.00" fill="#000000">: BadAddr</text>
</a>
</g>
</g>
<g id="clust99" class="cluster">
<title>cluster_system_dcode_flash_bus</title>
<g id="a_clust99"><a xlink:title="clk_domain=system.dcode_flash_bus.clk_domain&#10;eventq_index=0&#10;forward_latency=0&#10;frontend_latency=0&#10;header_latency=0&#10;power_model=&#10;power_state=system.dcode_flash_bus.power_state&#10;&#13;esponse_latency=0&#10;use_default_range=false&#10;width=4">
<path fill="#6f798c" stroke="#000000" d="M48,-352C48,-352 360,-352 360,-352 366,-352 372,-358 372,-364 372,-364 372,-574 372,-574 372,-580 366,-586 360,-586 360,-586 48,-586 48,-586 42,-586 36,-580 36,-574 36,-574 36,-364 36,-364 36,-358 42,-352 48,-352"/>
<text text-anchor="middle" x="204" y="-570.8" font-family="Arial" font-size="14.00" fill="#000000">dcode_flash_bus </text>
<text text-anchor="middle" x="204" y="-555.8" font-family="Arial" font-size="14.00" fill="#000000">: NoncoherentXBar</text>
</a>
</g>
</g>
<g id="clust103" class="cluster">
<title>cluster_system_dcode_flash_bus_badaddr_responder</title>
<g id="a_clust103"><a xlink:title="clk_domain=system.dcode_flash_bus.clk_domain&#10;eventq_index=0&#10;fake_mem=false&#10;pio_addr=0&#10;pio_latency=100000&#10;pio_size=8&#10;power_model=&#10;power_state=system.dcode_flash_bus.badaddr_responder.power_state&#10;&#13;et_bad_addr=true&#10;&#13;et_data16=65535&#10;&#13;et_data32=4294967295&#10;&#13;et_data64=18446744073709551615&#10;&#13;et_data8=255&#10;system=system&#10;update_data=false&#10;warn_access=">
<path fill="#c7a793" stroke="#000000" d="M56,-360C56,-360 170,-360 170,-360 176,-360 182,-366 182,-372 182,-372 182,-438 182,-438 182,-444 176,-450 170,-450 170,-450 56,-450 56,-450 50,-450 44,-444 44,-438 44,-438 44,-372 44,-372 44,-366 50,-360 56,-360"/>
<text text-anchor="middle" x="113" y="-434.8" font-family="Arial" font-size="14.00" fill="#000000">badaddr_responder </text>
<text text-anchor="middle" x="113" y="-419.8" font-family="Arial" font-size="14.00" fill="#000000">: BadAddr</text>
</a>
</g>
</g>
<g id="clust105" class="cluster">
<title>cluster_system_system_bus</title>
<g id="a_clust105"><a xlink:title="clk_domain=system.clk_domain&#10;eventq_index=0&#10;forward_latency=0&#10;frontend_latency=0&#10;header_latency=0&#10;power_model=&#10;power_state=system.system_bus.power_state&#10;&#13;esponse_latency=0&#10;use_default_range=false&#10;width=4">
<path fill="#6f798c" stroke="#000000" d="M1488,-352C1488,-352 1800,-352 1800,-352 1806,-352 1812,-358 1812,-364 1812,-364 1812,-574 1812,-574 1812,-580 1806,-586 1800,-586 1800,-586 1488,-586 1488,-586 1482,-586 1476,-580 1476,-574 1476,-574 1476,-364 1476,-364 1476,-358 1482,-352 1488,-352"/>
<text text-anchor="middle" x="1644" y="-570.8" font-family="Arial" font-size="14.00" fill="#000000">system_bus </text>
<text text-anchor="middle" x="1644" y="-555.8" font-family="Arial" font-size="14.00" fill="#000000">: NoncoherentXBar</text>
</a>
</g>
</g>
<g id="clust107" class="cluster">
<title>cluster_system_system_bus_badaddr_responder</title>
<g id="a_clust107"><a xlink:title="clk_domain=system.clk_domain&#10;eventq_index=0&#10;fake_mem=false&#10;pio_addr=0&#10;pio_latency=100000&#10;pio_size=8&#10;power_model=&#10;power_state=system.system_bus.badaddr_responder.power_state&#10;&#13;et_bad_addr=true&#10;&#13;et_data16=65535&#10;&#13;et_data32=4294967295&#10;&#13;et_data64=18446744073709551615&#10;&#13;et_data8=255&#10;system=system&#10;update_data=false&#10;warn_access=">
<path fill="#c7a793" stroke="#000000" d="M1678,-360C1678,-360 1792,-360 1792,-360 1798,-360 1804,-366 1804,-372 1804,-372 1804,-438 1804,-438 1804,-444 1798,-450 1792,-450 1792,-450 1678,-450 1678,-450 1672,-450 1666,-444 1666,-438 1666,-438 1666,-372 1666,-372 1666,-366 1672,-360 1678,-360"/>
<text text-anchor="middle" x="1735" y="-434.8" font-family="Arial" font-size="14.00" fill="#000000">badaddr_responder </text>
<text text-anchor="middle" x="1735" y="-419.8" font-family="Arial" font-size="14.00" fill="#000000">: BadAddr</text>
</a>
</g>
</g>
<g id="clust109" class="cluster">
<title>cluster_system_mem_0</title>
<g id="a_clust109"><a xlink:title="address_phase_latency=500&#10;arrive_buffer_size=0&#10;buffer_hit_latency=0&#10;clk_domain=system.clk_domain&#10;collect_stats=true&#10;conf_table_reported=true&#10;eventq_index=0&#10;image_file=&#10;in_addr_map=true&#10;kvm_map=true&#10;&#10;atency=23000&#10;&#10;atency_var=0&#10;memory_read_request_size=8&#10;&#10;ull=false&#10;port_arrive_buffer_size=0&#10;port_priority=0 1&#10;port_read_buffer_size=8 8&#10;port_ready_to_fire_buffer_size=0&#10;power_model=&#10;power_state=system.mem_0.power_state&#10;&#13;ange=134217728:134479872&#10;&#13;ead_buffer_size=0&#10;&#13;eady_to_fire_buffer_size=0&#10;writeable=true">
<path fill="#5e5958" stroke="#000000" d="M297,-626C297,-626 445,-626 445,-626 451,-626 457,-632 457,-638 457,-638 457,-704 457,-704 457,-710 451,-716 445,-716 445,-716 297,-716 297,-716 291,-716 285,-710 285,-704 285,-704 285,-638 285,-638 285,-632 291,-626 297,-626"/>
<text text-anchor="middle" x="371" y="-700.8" font-family="Arial" font-size="14.00" fill="#000000">mem_0 </text>
<text text-anchor="middle" x="371" y="-685.8" font-family="Arial" font-size="14.00" fill="#000000">: PipelinedSimpleMemory</text>
</a>
</g>
</g>
<g id="clust111" class="cluster">
<title>cluster_system_mem_1</title>
<g id="a_clust111"><a xlink:title="address_phase_latency=500&#10;arrive_buffer_size=0&#10;buffer_hit_latency=0&#10;clk_domain=system.clk_domain&#10;collect_stats=true&#10;conf_table_reported=true&#10;eventq_index=0&#10;image_file=&#10;in_addr_map=true&#10;kvm_map=true&#10;&#10;atency=23000&#10;&#10;atency_var=0&#10;memory_read_request_size=8&#10;&#10;ull=false&#10;port_arrive_buffer_size=0&#10;port_priority=0 1&#10;port_read_buffer_size=8 8&#10;port_ready_to_fire_buffer_size=0&#10;power_model=&#10;power_state=system.mem_1.power_state&#10;&#13;ange=134479872:134742016&#10;&#13;ead_buffer_size=0&#10;&#13;eady_to_fire_buffer_size=0&#10;writeable=true">
<path fill="#5e5958" stroke="#000000" d="M66,-626C66,-626 214,-626 214,-626 220,-626 226,-632 226,-638 226,-638 226,-704 226,-704 226,-710 220,-716 214,-716 214,-716 66,-716 66,-716 60,-716 54,-710 54,-704 54,-704 54,-638 54,-638 54,-632 60,-626 66,-626"/>
<text text-anchor="middle" x="140" y="-700.8" font-family="Arial" font-size="14.00" fill="#000000">mem_1 </text>
<text text-anchor="middle" x="140" y="-685.8" font-family="Arial" font-size="14.00" fill="#000000">: PipelinedSimpleMemory</text>
</a>
</g>
</g>
<g id="clust113" class="cluster">
<title>cluster_system_mem_2</title>
<g id="a_clust113"><a xlink:title="bandwidth=73.000000&#10;clk_domain=system.clk_domain&#10;collect_stats=true&#10;conf_table_reported=true&#10;eventq_index=0&#10;image_file=&#10;in_addr_map=true&#10;kvm_map=true&#10;&#10;atency=0&#10;&#10;atency_var=0&#10;&#10;ull=false&#10;power_model=&#10;power_state=system.mem_2.power_state&#10;&#13;ange=536870912:536952832&#10;writeable=true">
<path fill="#5e5958" stroke="#000000" d="M748,-360C748,-360 840,-360 840,-360 846,-360 852,-366 852,-372 852,-372 852,-438 852,-438 852,-444 846,-450 840,-450 840,-450 748,-450 748,-450 742,-450 736,-444 736,-438 736,-438 736,-372 736,-372 736,-366 742,-360 748,-360"/>
<text text-anchor="middle" x="794" y="-434.8" font-family="Arial" font-size="14.00" fill="#000000">mem_2 </text>
<text text-anchor="middle" x="794" y="-419.8" font-family="Arial" font-size="14.00" fill="#000000">: SimpleMemory</text>
</a>
</g>
</g>
<g id="clust115" class="cluster">
<title>cluster_system_mem_3</title>
<g id="a_clust115"><a xlink:title="bandwidth=73.000000&#10;clk_domain=system.clk_domain&#10;collect_stats=true&#10;conf_table_reported=true&#10;eventq_index=0&#10;image_file=&#10;in_addr_map=true&#10;kvm_map=true&#10;&#10;atency=0&#10;&#10;atency_var=0&#10;&#10;ull=false&#10;power_model=&#10;power_state=system.mem_3.power_state&#10;&#13;ange=536952832:537001984&#10;writeable=true">
<path fill="#5e5958" stroke="#000000" d="M872,-360C872,-360 964,-360 964,-360 970,-360 976,-366 976,-372 976,-372 976,-438 976,-438 976,-444 970,-450 964,-450 964,-450 872,-450 872,-450 866,-450 860,-444 860,-438 860,-438 860,-372 860,-372 860,-366 866,-360 872,-360"/>
<text text-anchor="middle" x="918" y="-434.8" font-family="Arial" font-size="14.00" fill="#000000">mem_3 </text>
<text text-anchor="middle" x="918" y="-419.8" font-family="Arial" font-size="14.00" fill="#000000">: SimpleMemory</text>
</a>
</g>
</g>
<g id="clust117" class="cluster">
<title>cluster_system_mem_4</title>
<g id="a_clust117"><a xlink:title="bandwidth=73.000000&#10;clk_domain=system.clk_domain&#10;collect_stats=true&#10;conf_table_reported=true&#10;eventq_index=0&#10;image_file=&#10;in_addr_map=true&#10;kvm_map=true&#10;&#10;atency=0&#10;&#10;atency_var=0&#10;&#10;ull=false&#10;power_model=&#10;power_state=system.mem_4.power_state&#10;&#13;ange=268435456:268468224&#10;writeable=true">
<path fill="#5e5958" stroke="#000000" d="M1364,-360C1364,-360 1456,-360 1456,-360 1462,-360 1468,-366 1468,-372 1468,-372 1468,-438 1468,-438 1468,-444 1462,-450 1456,-450 1456,-450 1364,-450 1364,-450 1358,-450 1352,-444 1352,-438 1352,-438 1352,-372 1352,-372 1352,-366 1358,-360 1364,-360"/>
<text text-anchor="middle" x="1410" y="-434.8" font-family="Arial" font-size="14.00" fill="#000000">mem_4 </text>
<text text-anchor="middle" x="1410" y="-419.8" font-family="Arial" font-size="14.00" fill="#000000">: SimpleMemory</text>
</a>
</g>
</g>
<g id="clust119" class="cluster">
<title>cluster_system_icode_bus</title>
<g id="a_clust119"><a xlink:title="clk_domain=system.clk_domain&#10;eventq_index=0&#10;forward_latency=0&#10;frontend_latency=0&#10;header_latency=0&#10;power_model=&#10;power_state=system.icode_bus.power_state&#10;&#13;esponse_latency=0&#10;use_default_range=false&#10;width=4">
<path fill="#6f798c" stroke="#000000" d="M1008,-360C1008,-360 1320,-360 1320,-360 1326,-360 1332,-366 1332,-372 1332,-372 1332,-438 1332,-438 1332,-444 1326,-450 1320,-450 1320,-450 1008,-450 1008,-450 1002,-450 996,-444 996,-438 996,-438 996,-372 996,-372 996,-366 1002,-360 1008,-360"/>
<text text-anchor="middle" x="1164" y="-434.8" font-family="Arial" font-size="14.00" fill="#000000">icode_bus </text>
<text text-anchor="middle" x="1164" y="-419.8" font-family="Arial" font-size="14.00" fill="#000000">: NoncoherentXBar</text>
</a>
</g>
</g>
<g id="clust121" class="cluster">
<title>cluster_system_dcode_bus</title>
<g id="a_clust121"><a xlink:title="clk_domain=system.clk_domain&#10;eventq_index=0&#10;forward_latency=0&#10;frontend_latency=0&#10;header_latency=0&#10;power_model=&#10;power_state=system.dcode_bus.power_state&#10;&#13;esponse_latency=0&#10;use_default_range=false&#10;width=4">
<path fill="#6f798c" stroke="#000000" d="M404,-360C404,-360 716,-360 716,-360 722,-360 728,-366 728,-372 728,-372 728,-438 728,-438 728,-444 722,-450 716,-450 716,-450 404,-450 404,-450 398,-450 392,-444 392,-438 392,-438 392,-372 392,-372 392,-366 398,-360 404,-360"/>
<text text-anchor="middle" x="560" y="-434.8" font-family="Arial" font-size="14.00" fill="#000000">dcode_bus </text>
<text text-anchor="middle" x="560" y="-419.8" font-family="Arial" font-size="14.00" fill="#000000">: NoncoherentXBar</text>
</a>
</g>
</g>
<!-- system_system_port -->
<g id="node1" class="node">
<title>system_system_port</title>
<path fill="#b6b8bc" stroke="#000000" d="M1571.5,-670C1571.5,-670 1504.5,-670 1504.5,-670 1498.5,-670 1492.5,-664 1492.5,-658 1492.5,-658 1492.5,-646 1492.5,-646 1492.5,-640 1498.5,-634 1504.5,-634 1504.5,-634 1571.5,-634 1571.5,-634 1577.5,-634 1583.5,-640 1583.5,-646 1583.5,-646 1583.5,-658 1583.5,-658 1583.5,-664 1577.5,-670 1571.5,-670"/>
<text text-anchor="middle" x="1538" y="-648.3" font-family="Arial" font-size="14.00" fill="#000000">system_port</text>
</g>
<!-- system_system_bus_cpu_side_ports -->
<g id="node16" class="node">
<title>system_system_bus_cpu_side_ports</title>
<path fill="#586070" stroke="#000000" d="M1580,-540C1580,-540 1496,-540 1496,-540 1490,-540 1484,-534 1484,-528 1484,-528 1484,-516 1484,-516 1484,-510 1490,-504 1496,-504 1496,-504 1580,-504 1580,-504 1586,-504 1592,-510 1592,-516 1592,-516 1592,-528 1592,-528 1592,-534 1586,-540 1580,-540"/>
<text text-anchor="middle" x="1538" y="-518.3" font-family="Arial" font-size="14.00" fill="#000000">cpu_side_ports</text>
</g>
<!-- system_system_port&#45;&gt;system_system_bus_cpu_side_ports -->
<g id="edge1" class="edge">
<title>system_system_port&#45;&gt;system_system_bus_cpu_side_ports</title>
<path fill="none" stroke="black" d="M1538,-633.74C1538,-612.36 1538,-575.69 1538,-550.44"/>
<polygon fill="black" stroke="black" points="1541.5,-550.4 1538,-540.4 1534.5,-550.4 1541.5,-550.4"/>
</g>
<!-- system_platform_scs_pio -->
<g id="node2" class="node">
<title>system_platform_scs_pio</title>
<path fill="#9f8575" stroke="#000000" d="M1878,-404C1878,-404 1848,-404 1848,-404 1842,-404 1836,-398 1836,-392 1836,-392 1836,-380 1836,-380 1836,-374 1842,-368 1848,-368 1848,-368 1878,-368 1878,-368 1884,-368 1890,-374 1890,-380 1890,-380 1890,-392 1890,-392 1890,-398 1884,-404 1878,-404"/>
<text text-anchor="middle" x="1863" y="-382.3" font-family="Arial" font-size="14.00" fill="#000000">pio</text>
</g>
<!-- system_cpu_icache_port -->
<g id="node3" class="node">
<title>system_cpu_icache_port</title>
<path fill="#959ead" stroke="#000000" d="M1257,-76C1257,-76 1195,-76 1195,-76 1189,-76 1183,-70 1183,-64 1183,-64 1183,-52 1183,-52 1183,-46 1189,-40 1195,-40 1195,-40 1257,-40 1257,-40 1263,-40 1269,-46 1269,-52 1269,-52 1269,-64 1269,-64 1269,-70 1263,-76 1257,-76"/>
<text text-anchor="middle" x="1226" y="-54.3" font-family="Arial" font-size="14.00" fill="#000000">icache_port</text>
</g>
<!-- system_cpu_dcache_port -->
<g id="node4" class="node">
<title>system_cpu_dcache_port</title>
<path fill="#959ead" stroke="#000000" d="M1010.5,-206C1010.5,-206 943.5,-206 943.5,-206 937.5,-206 931.5,-200 931.5,-194 931.5,-194 931.5,-182 931.5,-182 931.5,-176 937.5,-170 943.5,-170 943.5,-170 1010.5,-170 1010.5,-170 1016.5,-170 1022.5,-176 1022.5,-182 1022.5,-182 1022.5,-194 1022.5,-194 1022.5,-200 1016.5,-206 1010.5,-206"/>
<text text-anchor="middle" x="977" y="-184.3" font-family="Arial" font-size="14.00" fill="#000000">dcache_port</text>
</g>
<!-- system_cpu_mmu_stacking_port -->
<g id="node5" class="node">
<title>system_cpu_mmu_stacking_port</title>
<path fill="#94918b" stroke="#000000" d="M1379.5,-206C1379.5,-206 1306.5,-206 1306.5,-206 1300.5,-206 1294.5,-200 1294.5,-194 1294.5,-194 1294.5,-182 1294.5,-182 1294.5,-176 1300.5,-170 1306.5,-170 1306.5,-170 1379.5,-170 1379.5,-170 1385.5,-170 1391.5,-176 1391.5,-182 1391.5,-182 1391.5,-194 1391.5,-194 1391.5,-200 1385.5,-206 1379.5,-206"/>
<text text-anchor="middle" x="1343" y="-184.3" font-family="Arial" font-size="14.00" fill="#000000">stacking_port</text>
</g>
<!-- system_cpu_mmu_stacking_barrier_cpu_side_port -->
<g id="node6" class="node">
<title>system_cpu_mmu_stacking_barrier_cpu_side_port</title>
<path fill="#7f7c77" stroke="#000000" d="M1264.5,-206C1264.5,-206 1187.5,-206 1187.5,-206 1181.5,-206 1175.5,-200 1175.5,-194 1175.5,-194 1175.5,-182 1175.5,-182 1175.5,-176 1181.5,-170 1187.5,-170 1187.5,-170 1264.5,-170 1264.5,-170 1270.5,-170 1276.5,-176 1276.5,-182 1276.5,-182 1276.5,-194 1276.5,-194 1276.5,-200 1270.5,-206 1264.5,-206"/>
<text text-anchor="middle" x="1226" y="-184.3" font-family="Arial" font-size="14.00" fill="#000000">cpu_side_port</text>
</g>
<!-- system_cpu_mmu_stacking_barrier_cpu_side_port&#45;&gt;system_cpu_icache_port -->
<g id="edge2" class="edge">
<title>system_cpu_mmu_stacking_barrier_cpu_side_port&#45;&gt;system_cpu_icache_port</title>
<path fill="none" stroke="black" d="M1226,-159.72C1226,-134.52 1226,-97.84 1226,-76.4"/>
<polygon fill="black" stroke="black" points="1222.5,-159.74 1226,-169.74 1229.5,-159.74 1222.5,-159.74"/>
</g>
<!-- system_cpu_mmu_stacking_barrier_mem_side_port -->
<g id="node7" class="node">
<title>system_cpu_mmu_stacking_barrier_mem_side_port</title>
<path fill="#7f7c77" stroke="#000000" d="M1145.5,-206C1145.5,-206 1058.5,-206 1058.5,-206 1052.5,-206 1046.5,-200 1046.5,-194 1046.5,-194 1046.5,-182 1046.5,-182 1046.5,-176 1052.5,-170 1058.5,-170 1058.5,-170 1145.5,-170 1145.5,-170 1151.5,-170 1157.5,-176 1157.5,-182 1157.5,-182 1157.5,-194 1157.5,-194 1157.5,-200 1151.5,-206 1145.5,-206"/>
<text text-anchor="middle" x="1102" y="-184.3" font-family="Arial" font-size="14.00" fill="#000000">mem_side_port</text>
</g>
<!-- system_flash_bus_cpu_side_ports -->
<g id="node8" class="node">
<title>system_flash_bus_cpu_side_ports</title>
<path fill="#586070" stroke="#000000" d="M724,-206C724,-206 640,-206 640,-206 634,-206 628,-200 628,-194 628,-194 628,-182 628,-182 628,-176 634,-170 640,-170 640,-170 724,-170 724,-170 730,-170 736,-176 736,-182 736,-182 736,-194 736,-194 736,-200 730,-206 724,-206"/>
<text text-anchor="middle" x="682" y="-184.3" font-family="Arial" font-size="14.00" fill="#000000">cpu_side_ports</text>
</g>
<!-- system_flash_bus_mem_side_ports -->
<g id="node9" class="node">
<title>system_flash_bus_mem_side_ports</title>
<path fill="#586070" stroke="#000000" d="M598,-206C598,-206 504,-206 504,-206 498,-206 492,-200 492,-194 492,-194 492,-182 492,-182 492,-176 498,-170 504,-170 504,-170 598,-170 598,-170 604,-170 610,-176 610,-182 610,-182 610,-194 610,-194 610,-200 604,-206 598,-206"/>
<text text-anchor="middle" x="551" y="-184.3" font-family="Arial" font-size="14.00" fill="#000000">mem_side_ports</text>
</g>
<!-- system_flash_bus_default -->
<g id="node10" class="node">
<title>system_flash_bus_default</title>
<path fill="#586070" stroke="#000000" d="M461.5,-206C461.5,-206 428.5,-206 428.5,-206 422.5,-206 416.5,-200 416.5,-194 416.5,-194 416.5,-182 416.5,-182 416.5,-176 422.5,-170 428.5,-170 428.5,-170 461.5,-170 461.5,-170 467.5,-170 473.5,-176 473.5,-182 473.5,-182 473.5,-194 473.5,-194 473.5,-200 467.5,-206 461.5,-206"/>
<text text-anchor="middle" x="445" y="-184.3" font-family="Arial" font-size="14.00" fill="#000000">default</text>
</g>
<!-- system_flash_bus_badaddr_responder_pio -->
<g id="node11" class="node">
<title>system_flash_bus_badaddr_responder_pio</title>
<path fill="#9f8575" stroke="#000000" d="M466,-76C466,-76 436,-76 436,-76 430,-76 424,-70 424,-64 424,-64 424,-52 424,-52 424,-46 430,-40 436,-40 436,-40 466,-40 466,-40 472,-40 478,-46 478,-52 478,-52 478,-64 478,-64 478,-70 472,-76 466,-76"/>
<text text-anchor="middle" x="451" y="-54.3" font-family="Arial" font-size="14.00" fill="#000000">pio</text>
</g>
<!-- system_flash_bus_default&#45;&gt;system_flash_bus_badaddr_responder_pio -->
<g id="edge3" class="edge">
<title>system_flash_bus_default&#45;&gt;system_flash_bus_badaddr_responder_pio</title>
<path fill="none" stroke="black" d="M445.81,-169.74C446.81,-148.36 448.53,-111.69 449.71,-86.44"/>
<polygon fill="black" stroke="black" points="453.21,-86.55 450.18,-76.4 446.22,-86.22 453.21,-86.55"/>
</g>
<!-- system_dcode_flash_bus_cpu_side_ports -->
<g id="node12" class="node">
<title>system_dcode_flash_bus_cpu_side_ports</title>
<path fill="#586070" stroke="#000000" d="M352,-540C352,-540 268,-540 268,-540 262,-540 256,-534 256,-528 256,-528 256,-516 256,-516 256,-510 262,-504 268,-504 268,-504 352,-504 352,-504 358,-504 364,-510 364,-516 364,-516 364,-528 364,-528 364,-534 358,-540 352,-540"/>
<text text-anchor="middle" x="310" y="-518.3" font-family="Arial" font-size="14.00" fill="#000000">cpu_side_ports</text>
</g>
<!-- system_dcode_bus_mem_side_ports -->
<g id="node29" class="node">
<title>system_dcode_bus_mem_side_ports</title>
<path fill="#586070" stroke="#000000" d="M506,-404C506,-404 412,-404 412,-404 406,-404 400,-398 400,-392 400,-392 400,-380 400,-380 400,-374 406,-368 412,-368 412,-368 506,-368 506,-368 512,-368 518,-374 518,-380 518,-380 518,-392 518,-392 518,-398 512,-404 506,-404"/>
<text text-anchor="middle" x="459" y="-382.3" font-family="Arial" font-size="14.00" fill="#000000">mem_side_ports</text>
</g>
<!-- system_dcode_flash_bus_cpu_side_ports&#45;&gt;system_dcode_bus_mem_side_ports -->
<g id="edge4" class="edge">
<title>system_dcode_flash_bus_cpu_side_ports&#45;&gt;system_dcode_bus_mem_side_ports</title>
<path fill="none" stroke="black" d="M336.69,-497C366.4,-470.28 413.68,-427.76 439.9,-404.18"/>
<polygon fill="black" stroke="black" points="334.27,-494.47 329.17,-503.76 338.95,-499.67 334.27,-494.47"/>
</g>
<!-- system_dcode_flash_bus_mem_side_ports -->
<g id="node13" class="node">
<title>system_dcode_flash_bus_mem_side_ports</title>
<path fill="#586070" stroke="#000000" d="M226,-540C226,-540 132,-540 132,-540 126,-540 120,-534 120,-528 120,-528 120,-516 120,-516 120,-510 126,-504 132,-504 132,-504 226,-504 226,-504 232,-504 238,-510 238,-516 238,-516 238,-528 238,-528 238,-534 232,-540 226,-540"/>
<text text-anchor="middle" x="179" y="-518.3" font-family="Arial" font-size="14.00" fill="#000000">mem_side_ports</text>
</g>
<!-- system_dcode_flash_bus_default -->
<g id="node14" class="node">
<title>system_dcode_flash_bus_default</title>
<path fill="#586070" stroke="#000000" d="M89.5,-540C89.5,-540 56.5,-540 56.5,-540 50.5,-540 44.5,-534 44.5,-528 44.5,-528 44.5,-516 44.5,-516 44.5,-510 50.5,-504 56.5,-504 56.5,-504 89.5,-504 89.5,-504 95.5,-504 101.5,-510 101.5,-516 101.5,-516 101.5,-528 101.5,-528 101.5,-534 95.5,-540 89.5,-540"/>
<text text-anchor="middle" x="73" y="-518.3" font-family="Arial" font-size="14.00" fill="#000000">default</text>
</g>
<!-- system_dcode_flash_bus_badaddr_responder_pio -->
<g id="node15" class="node">
<title>system_dcode_flash_bus_badaddr_responder_pio</title>
<path fill="#9f8575" stroke="#000000" d="M94,-404C94,-404 64,-404 64,-404 58,-404 52,-398 52,-392 52,-392 52,-380 52,-380 52,-374 58,-368 64,-368 64,-368 94,-368 94,-368 100,-368 106,-374 106,-380 106,-380 106,-392 106,-392 106,-398 100,-404 94,-404"/>
<text text-anchor="middle" x="79" y="-382.3" font-family="Arial" font-size="14.00" fill="#000000">pio</text>
</g>
<!-- system_dcode_flash_bus_default&#45;&gt;system_dcode_flash_bus_badaddr_responder_pio -->
<g id="edge5" class="edge">
<title>system_dcode_flash_bus_default&#45;&gt;system_dcode_flash_bus_badaddr_responder_pio</title>
<path fill="none" stroke="black" d="M73.77,-503.76C74.78,-481.14 76.57,-441.2 77.77,-414.42"/>
<polygon fill="black" stroke="black" points="81.28,-414.32 78.23,-404.18 74.29,-414.01 81.28,-414.32"/>
</g>
<!-- system_system_bus_cpu_side_ports&#45;&gt;system_cpu_mmu_stacking_port -->
<g id="edge8" class="edge">
<title>system_system_bus_cpu_side_ports&#45;&gt;system_cpu_mmu_stacking_port</title>
<path fill="none" stroke="black" d="M1473.81,-521.22C1425.31,-519.86 1364.38,-514.37 1348,-496 1328.71,-474.36 1338.59,-267.89 1342,-206.27"/>
<polygon fill="black" stroke="black" points="1473.87,-524.72 1483.95,-521.45 1474.03,-517.72 1473.87,-524.72"/>
</g>
<!-- system_icode_bus_default -->
<g id="node27" class="node">
<title>system_icode_bus_default</title>
<path fill="#586070" stroke="#000000" d="M1049.5,-404C1049.5,-404 1016.5,-404 1016.5,-404 1010.5,-404 1004.5,-398 1004.5,-392 1004.5,-392 1004.5,-380 1004.5,-380 1004.5,-374 1010.5,-368 1016.5,-368 1016.5,-368 1049.5,-368 1049.5,-368 1055.5,-368 1061.5,-374 1061.5,-380 1061.5,-380 1061.5,-392 1061.5,-392 1061.5,-398 1055.5,-404 1049.5,-404"/>
<text text-anchor="middle" x="1033" y="-382.3" font-family="Arial" font-size="14.00" fill="#000000">default</text>
</g>
<!-- system_system_bus_cpu_side_ports&#45;&gt;system_icode_bus_default -->
<g id="edge6" class="edge">
<title>system_system_bus_cpu_side_ports&#45;&gt;system_icode_bus_default</title>
<path fill="none" stroke="black" d="M1473.45,-521.48C1352.79,-521.8 1102.38,-519.58 1071,-496 1042.16,-474.33 1035.09,-429.25 1033.43,-404.39"/>
<polygon fill="black" stroke="black" points="1473.67,-524.98 1483.66,-521.44 1473.65,-517.98 1473.67,-524.98"/>
</g>
<!-- system_dcode_bus_default -->
<g id="node30" class="node">
<title>system_dcode_bus_default</title>
<path fill="#586070" stroke="#000000" d="M581.5,-404C581.5,-404 548.5,-404 548.5,-404 542.5,-404 536.5,-398 536.5,-392 536.5,-392 536.5,-380 536.5,-380 536.5,-374 542.5,-368 548.5,-368 548.5,-368 581.5,-368 581.5,-368 587.5,-368 593.5,-374 593.5,-380 593.5,-380 593.5,-392 593.5,-392 593.5,-398 587.5,-404 581.5,-404"/>
<text text-anchor="middle" x="565" y="-382.3" font-family="Arial" font-size="14.00" fill="#000000">default</text>
</g>
<!-- system_system_bus_cpu_side_ports&#45;&gt;system_dcode_bus_default -->
<g id="edge7" class="edge">
<title>system_system_bus_cpu_side_ports&#45;&gt;system_dcode_bus_default</title>
<path fill="none" stroke="black" d="M1473.62,-521.27C1267.95,-521.88 638.07,-521.63 603,-496 573.71,-474.6 566.84,-428.97 565.33,-404.07"/>
<polygon fill="black" stroke="black" points="1473.68,-524.77 1483.67,-521.24 1473.66,-517.77 1473.68,-524.77"/>
</g>
<!-- system_system_bus_mem_side_ports -->
<g id="node17" class="node">
<title>system_system_bus_mem_side_ports</title>
<path fill="#586070" stroke="#000000" d="M1716,-540C1716,-540 1622,-540 1622,-540 1616,-540 1610,-534 1610,-528 1610,-528 1610,-516 1610,-516 1610,-510 1616,-504 1622,-504 1622,-504 1716,-504 1716,-504 1722,-504 1728,-510 1728,-516 1728,-516 1728,-528 1728,-528 1728,-534 1722,-540 1716,-540"/>
<text text-anchor="middle" x="1669" y="-518.3" font-family="Arial" font-size="14.00" fill="#000000">mem_side_ports</text>
</g>
<!-- system_system_bus_mem_side_ports&#45;&gt;system_platform_scs_pio -->
<g id="edge13" class="edge">
<title>system_system_bus_mem_side_ports&#45;&gt;system_platform_scs_pio</title>
<path fill="none" stroke="black" d="M1728.36,-505.86C1731.62,-505.19 1734.84,-504.57 1738,-504 1753.41,-501.23 1795.15,-504.95 1808,-496 1835.51,-476.83 1850.02,-439.72 1857.1,-414.17"/>
<polygon fill="black" stroke="black" points="1860.52,-414.9 1859.61,-404.35 1853.74,-413.17 1860.52,-414.9"/>
</g>
<!-- system_system_bus_mem_side_ports&#45;&gt;system_flash_bus_cpu_side_ports -->
<g id="edge12" class="edge">
<title>system_system_bus_mem_side_ports&#45;&gt;system_flash_bus_cpu_side_ports</title>
<path fill="none" stroke="black" d="M1609.82,-505.35C1606.85,-504.83 1603.9,-504.38 1601,-504 1584.22,-501.82 1004.37,-507.54 992,-496 968.51,-474.1 1002.16,-375.24 980,-352 970.56,-342.11 931.82,-348.75 919,-344 835.15,-312.94 750.82,-247.78 709.01,-212.65"/>
<polygon fill="black" stroke="black" points="711.12,-209.84 701.23,-206.04 706.59,-215.18 711.12,-209.84"/>
</g>
<!-- system_mem_2_port -->
<g id="node22" class="node">
<title>system_mem_2_port</title>
<path fill="#4b4746" stroke="#000000" d="M832,-404C832,-404 802,-404 802,-404 796,-404 790,-398 790,-392 790,-392 790,-380 790,-380 790,-374 796,-368 802,-368 802,-368 832,-368 832,-368 838,-368 844,-374 844,-380 844,-380 844,-392 844,-392 844,-398 838,-404 832,-404"/>
<text text-anchor="middle" x="817" y="-382.3" font-family="Arial" font-size="14.00" fill="#000000">port</text>
</g>
<!-- system_system_bus_mem_side_ports&#45;&gt;system_mem_2_port -->
<g id="edge9" class="edge">
<title>system_system_bus_mem_side_ports&#45;&gt;system_mem_2_port</title>
<path fill="none" stroke="black" d="M1609.82,-505.34C1606.85,-504.82 1603.9,-504.37 1601,-504 1580.47,-501.36 872.86,-508.01 856,-496 830.07,-477.53 821.3,-440.2 818.38,-414.41"/>
<polygon fill="black" stroke="black" points="821.84,-413.79 817.45,-404.15 814.87,-414.42 821.84,-413.79"/>
</g>
<!-- system_mem_3_port -->
<g id="node23" class="node">
<title>system_mem_3_port</title>
<path fill="#4b4746" stroke="#000000" d="M954,-404C954,-404 924,-404 924,-404 918,-404 912,-398 912,-392 912,-392 912,-380 912,-380 912,-374 918,-368 924,-368 924,-368 954,-368 954,-368 960,-368 966,-374 966,-380 966,-380 966,-392 966,-392 966,-398 960,-404 954,-404"/>
<text text-anchor="middle" x="939" y="-382.3" font-family="Arial" font-size="14.00" fill="#000000">port</text>
</g>
<!-- system_system_bus_mem_side_ports&#45;&gt;system_mem_3_port -->
<g id="edge10" class="edge">
<title>system_system_bus_mem_side_ports&#45;&gt;system_mem_3_port</title>
<path fill="none" stroke="black" d="M1609.82,-505.35C1606.85,-504.83 1603.9,-504.38 1601,-504 1583.89,-501.78 994.12,-505.91 980,-496 953.79,-477.61 944.32,-440.25 940.91,-414.44"/>
<polygon fill="black" stroke="black" points="944.35,-413.73 939.78,-404.17 937.39,-414.49 944.35,-413.73"/>
</g>
<!-- system_mem_4_port -->
<g id="node24" class="node">
<title>system_mem_4_port</title>
<path fill="#4b4746" stroke="#000000" d="M1448,-404C1448,-404 1418,-404 1418,-404 1412,-404 1406,-398 1406,-392 1406,-392 1406,-380 1406,-380 1406,-374 1412,-368 1418,-368 1418,-368 1448,-368 1448,-368 1454,-368 1460,-374 1460,-380 1460,-380 1460,-392 1460,-392 1460,-398 1454,-404 1448,-404"/>
<text text-anchor="middle" x="1433" y="-382.3" font-family="Arial" font-size="14.00" fill="#000000">port</text>
</g>
<!-- system_system_bus_mem_side_ports&#45;&gt;system_mem_4_port -->
<g id="edge11" class="edge">
<title>system_system_bus_mem_side_ports&#45;&gt;system_mem_4_port</title>
<path fill="none" stroke="black" d="M1638.63,-503.76C1595.21,-479.1 1515.54,-433.86 1469.14,-407.52"/>
<polygon fill="black" stroke="black" points="1470.75,-404.41 1460.33,-402.52 1467.3,-410.5 1470.75,-404.41"/>
</g>
<!-- system_system_bus_default -->
<g id="node18" class="node">
<title>system_system_bus_default</title>
<path fill="#586070" stroke="#000000" d="M1791.5,-540C1791.5,-540 1758.5,-540 1758.5,-540 1752.5,-540 1746.5,-534 1746.5,-528 1746.5,-528 1746.5,-516 1746.5,-516 1746.5,-510 1752.5,-504 1758.5,-504 1758.5,-504 1791.5,-504 1791.5,-504 1797.5,-504 1803.5,-510 1803.5,-516 1803.5,-516 1803.5,-528 1803.5,-528 1803.5,-534 1797.5,-540 1791.5,-540"/>
<text text-anchor="middle" x="1775" y="-518.3" font-family="Arial" font-size="14.00" fill="#000000">default</text>
</g>
<!-- system_system_bus_badaddr_responder_pio -->
<g id="node19" class="node">
<title>system_system_bus_badaddr_responder_pio</title>
<path fill="#9f8575" stroke="#000000" d="M1784,-404C1784,-404 1754,-404 1754,-404 1748,-404 1742,-398 1742,-392 1742,-392 1742,-380 1742,-380 1742,-374 1748,-368 1754,-368 1754,-368 1784,-368 1784,-368 1790,-368 1796,-374 1796,-380 1796,-380 1796,-392 1796,-392 1796,-398 1790,-404 1784,-404"/>
<text text-anchor="middle" x="1769" y="-382.3" font-family="Arial" font-size="14.00" fill="#000000">pio</text>
</g>
<!-- system_system_bus_default&#45;&gt;system_system_bus_badaddr_responder_pio -->
<g id="edge14" class="edge">
<title>system_system_bus_default&#45;&gt;system_system_bus_badaddr_responder_pio</title>
<path fill="none" stroke="black" d="M1774.23,-503.76C1773.22,-481.14 1771.43,-441.2 1770.23,-414.42"/>
<polygon fill="black" stroke="black" points="1773.71,-414.01 1769.77,-404.18 1766.72,-414.32 1773.71,-414.01"/>
</g>
<!-- system_mem_0_port -->
<g id="node20" class="node">
<title>system_mem_0_port</title>
<path fill="#4b4746" stroke="#000000" d="M356,-670C356,-670 326,-670 326,-670 320,-670 314,-664 314,-658 314,-658 314,-646 314,-646 314,-640 320,-634 326,-634 326,-634 356,-634 356,-634 362,-634 368,-640 368,-646 368,-646 368,-658 368,-658 368,-664 362,-670 356,-670"/>
<text text-anchor="middle" x="341" y="-648.3" font-family="Arial" font-size="14.00" fill="#000000">port</text>
</g>
<!-- system_mem_0_port&#45;&gt;system_flash_bus_mem_side_ports -->
<g id="edge15" class="edge">
<title>system_mem_0_port&#45;&gt;system_flash_bus_mem_side_ports</title>
<path fill="none" stroke="black" d="M358.23,-625.33C365.05,-613.81 372.16,-599.73 376,-586 404.04,-485.71 315.58,-426.83 388,-352 402.73,-336.78 465.77,-356.32 483,-344 529.37,-310.84 544.51,-238.93 549.13,-206.04"/>
<polygon fill="black" stroke="black" points="355.17,-623.62 352.9,-633.97 361.13,-627.3 355.17,-623.62"/>
</g>
<!-- system_mem_0_port&#45;&gt;system_dcode_flash_bus_mem_side_ports -->
<g id="edge16" class="edge">
<title>system_mem_0_port&#45;&gt;system_dcode_flash_bus_mem_side_ports</title>
<path fill="none" stroke="black" d="M305.46,-628.17C287.5,-616.19 265.62,-600.94 247,-586 228.8,-571.4 209.4,-553.13 196,-540.03"/>
<polygon fill="black" stroke="black" points="303.66,-631.17 313.94,-633.76 307.52,-625.33 303.66,-631.17"/>
</g>
<!-- system_mem_1_port -->
<g id="node21" class="node">
<title>system_mem_1_port</title>
<path fill="#4b4746" stroke="#000000" d="M134,-670C134,-670 104,-670 104,-670 98,-670 92,-664 92,-658 92,-658 92,-646 92,-646 92,-640 98,-634 104,-634 104,-634 134,-634 134,-634 140,-634 146,-640 146,-646 146,-646 146,-658 146,-658 146,-664 140,-670 134,-670"/>
<text text-anchor="middle" x="119" y="-648.3" font-family="Arial" font-size="14.00" fill="#000000">port</text>
</g>
<!-- system_mem_1_port&#45;&gt;system_flash_bus_mem_side_ports -->
<g id="edge17" class="edge">
<title>system_mem_1_port&#45;&gt;system_flash_bus_mem_side_ports</title>
<path fill="none" stroke="black" d="M82.86,-634.25C64,-623.4 42.67,-607.29 32,-586 13.52,-549.12 18.27,-372.99 40,-352 57.7,-334.9 462.52,-357.65 483,-344 530.56,-312.31 545.11,-239.3 549.35,-206.05"/>
<polygon fill="black" stroke="black" points="81.41,-637.45 91.87,-639.16 84.76,-631.3 81.41,-637.45"/>
</g>
<!-- system_mem_1_port&#45;&gt;system_dcode_flash_bus_mem_side_ports -->
<g id="edge18" class="edge">
<title>system_mem_1_port&#45;&gt;system_dcode_flash_bus_mem_side_ports</title>
<path fill="none" stroke="black" d="M131.47,-624.39C143.29,-599.17 160.7,-562.03 170.84,-540.4"/>
<polygon fill="black" stroke="black" points="128.17,-623.2 127.09,-633.74 134.51,-626.17 128.17,-623.2"/>
</g>
<!-- system_icode_bus_cpu_side_ports -->
<g id="node25" class="node">
<title>system_icode_bus_cpu_side_ports</title>
<path fill="#586070" stroke="#000000" d="M1312,-404C1312,-404 1228,-404 1228,-404 1222,-404 1216,-398 1216,-392 1216,-392 1216,-380 1216,-380 1216,-374 1222,-368 1228,-368 1228,-368 1312,-368 1312,-368 1318,-368 1324,-374 1324,-380 1324,-380 1324,-392 1324,-392 1324,-398 1318,-404 1312,-404"/>
<text text-anchor="middle" x="1270" y="-382.3" font-family="Arial" font-size="14.00" fill="#000000">cpu_side_ports</text>
</g>
<!-- system_icode_bus_cpu_side_ports&#45;&gt;system_cpu_mmu_stacking_barrier_mem_side_port -->
<g id="edge19" class="edge">
<title>system_icode_bus_cpu_side_ports&#45;&gt;system_cpu_mmu_stacking_barrier_mem_side_port</title>
<path fill="none" stroke="black" d="M1232.6,-363.19C1224.36,-359.02 1215.54,-355.02 1207,-352 1189.91,-345.95 1181.03,-355.48 1167,-344 1123.41,-308.35 1108.6,-238.35 1103.95,-206.06"/>
<polygon fill="black" stroke="black" points="1231.13,-366.37 1241.61,-367.93 1234.39,-360.18 1231.13,-366.37"/>
</g>
<!-- system_icode_bus_mem_side_ports -->
<g id="node26" class="node">
<title>system_icode_bus_mem_side_ports</title>
<path fill="#586070" stroke="#000000" d="M1186,-404C1186,-404 1092,-404 1092,-404 1086,-404 1080,-398 1080,-392 1080,-392 1080,-380 1080,-380 1080,-374 1086,-368 1092,-368 1092,-368 1186,-368 1186,-368 1192,-368 1198,-374 1198,-380 1198,-380 1198,-392 1198,-392 1198,-398 1192,-404 1186,-404"/>
<text text-anchor="middle" x="1139" y="-382.3" font-family="Arial" font-size="14.00" fill="#000000">mem_side_ports</text>
</g>
<!-- system_icode_bus_mem_side_ports&#45;&gt;system_flash_bus_cpu_side_ports -->
<g id="edge20" class="edge">
<title>system_icode_bus_mem_side_ports&#45;&gt;system_flash_bus_cpu_side_ports</title>
<path fill="none" stroke="black" d="M1110.19,-367.86C1098.44,-361.73 1084.47,-355.47 1071,-352 1005.49,-335.12 983.3,-365.02 919,-344 833.57,-316.08 749.29,-248.99 708.09,-212.92"/>
<polygon fill="black" stroke="black" points="710.24,-210.15 700.43,-206.13 705.6,-215.39 710.24,-210.15"/>
</g>
<!-- system_dcode_bus_cpu_side_ports -->
<g id="node28" class="node">
<title>system_dcode_bus_cpu_side_ports</title>
<path fill="#586070" stroke="#000000" d="M708,-404C708,-404 624,-404 624,-404 618,-404 612,-398 612,-392 612,-392 612,-380 612,-380 612,-374 618,-368 624,-368 624,-368 708,-368 708,-368 714,-368 720,-374 720,-380 720,-380 720,-392 720,-392 720,-398 714,-404 708,-404"/>
<text text-anchor="middle" x="666" y="-382.3" font-family="Arial" font-size="14.00" fill="#000000">cpu_side_ports</text>
</g>
<!-- system_dcode_bus_cpu_side_ports&#45;&gt;system_cpu_dcache_port -->
<g id="edge21" class="edge">
<title>system_dcode_bus_cpu_side_ports&#45;&gt;system_cpu_dcache_port</title>
<path fill="none" stroke="black" d="M709.23,-363.4C728.89,-353.57 747.87,-344.08 748,-344 826.11,-298.3 913.35,-235.86 953.92,-206.11"/>
<polygon fill="black" stroke="black" points="707.59,-360.3 700.21,-367.9 710.72,-366.56 707.59,-360.3"/>
</g>
</g>
</svg>
